
<svg width="485px" height="486px" viewBox="0 0 485 486" version="1.1" xmlns="http://www.w3.org/2000/svg" xmlns:xlink="http://www.w3.org/1999/xlink">
  <!-- Generator: Sketch 50.2 (55047) - http://www.bohemiancoding.com/sketch -->
  <desc>Created with Sketch.</desc>
  <defs>
    <linearGradient x1="50%" y1="0%" x2="50%" y2="100%" id="linearGradient-1">
      <stop stop-color="#FAD961" offset="0%"></stop>
      <stop stop-color="#F76B1C" offset="100%"></stop>
    </linearGradient>
    <linearGradient x1="60.2199917%" y1="96.7363826%" x2="36.7043541%" y2="2.86351705%" id="linearGradient-2">
      <stop stop-color="#0071A2" offset="0%"></stop>
      <stop stop-color="#5DCDEF" offset="98.9184429%"></stop>
    </linearGradient>
    <path d="M415.928038,235.679169 C414.16474,237.417759 412.373959,238.937159 410.555654,240.237405 C408.452946,241.741024 406.466519,242.743378 404.596313,243.244498 C402.726106,243.745618 401.065558,243.626449 399.614619,242.886988 C398.16368,242.147525 397.098711,240.510725 396.419677,237.976539 C395.939131,236.183115 395.691939,234.013797 395.678094,231.46852 C395.072486,233.260472 394.218857,235.13975 393.11718,237.106409 C392.015505,239.073069 390.662991,240.960664 389.059599,242.769252 C387.456208,244.577839 385.553777,246.20537 383.352251,247.651894 C381.150724,249.098418 378.627863,250.202723 375.78359,250.964844 C374.497824,251.309364 373.224216,251.504375 371.962729,251.549883 C370.701242,251.595391 369.53365,251.406814 368.459916,250.984146 C367.386182,250.561479 366.427726,249.867665 365.58452,248.902681 C364.741312,247.937698 364.095115,246.616996 363.645908,244.940533 C363.635461,244.901546 363.554076,244.286116 363.401751,243.094225 C363.249425,241.902334 363.260428,239.956335 363.434762,237.256169 C363.448062,237.050165 363.462887,236.83919 363.479237,236.623247 C362.540771,237.924278 361.52232,239.104089 360.423862,240.162707 C359.162663,241.378164 357.791794,242.184241 356.311213,242.580961 C355.298185,242.852401 354.272607,242.96006 353.23445,242.90394 C352.196291,242.84782 351.096176,242.599377 349.93407,242.158603 C349.116429,244.717742 348.051756,247.134107 346.740023,249.407772 C345.428288,251.681437 343.84412,253.756462 341.987472,255.632909 C340.130823,257.509356 338.023136,259.1501 335.664347,260.555189 C333.305558,261.960278 330.684585,263.049086 327.80135,263.821646 C326.710397,264.113966 325.386674,264.238833 323.830144,264.196251 C322.273613,264.153669 320.709552,263.810163 319.137914,263.165722 C317.566276,262.521282 316.118252,261.519893 314.793798,260.161526 C313.469344,258.803159 312.498956,256.973872 311.882603,254.67361 C311.464736,253.114111 311.216557,251.174881 311.138057,248.855862 C311.059558,246.536843 311.225773,244.079162 311.636705,241.482747 C312.047639,238.88633 312.736523,236.236368 313.70338,233.53278 C314.670237,230.829192 316.001714,228.278657 317.697851,225.881099 C319.393988,223.483541 321.495816,221.353381 324.003395,219.490557 C326.510974,217.627734 329.479076,216.236982 332.907787,215.318262 C334.388367,214.921542 336.028303,214.691053 337.827644,214.626787 C339.626985,214.562522 341.372798,214.805095 343.065136,215.354515 C344.757472,215.903934 346.287232,216.820743 347.654461,218.104968 C349.021688,219.389194 350.008241,221.161917 350.614147,223.423191 C350.927547,224.592816 351.129492,225.969877 351.219988,227.554415 C351.310483,229.138953 351.263411,230.833454 351.078768,232.637969 C351.593754,233.001419 352.130613,233.212749 352.68936,233.271966 C353.248108,233.331183 353.819693,233.282493 354.404133,233.125893 C355.222348,232.906653 356.065537,232.430005 356.933723,231.695935 C357.801911,230.961865 358.662743,230.083522 359.516247,229.06088 C360.369753,228.038237 361.197127,226.918143 361.998398,225.700563 C362.799669,224.482984 363.542485,223.281082 364.226868,222.094822 C364.911252,220.908562 365.521019,219.794543 366.056186,218.752732 C366.18506,218.501854 366.30856,218.260291 366.426684,218.028044 C366.968921,215.634118 367.602285,213.050784 368.326777,210.278029 C368.748018,208.577265 369.408181,207.261706 370.307283,206.331312 C371.206385,205.400918 372.279322,204.768691 373.526127,204.43461 C374.071604,204.288451 374.654835,204.2053 375.275838,204.185156 C375.89684,204.165012 376.499764,204.233282 377.084629,204.389968 C377.669493,204.546654 378.177837,204.807411 378.609674,205.172248 C379.041512,205.537083 379.335776,206.0119 379.492476,206.596713 C379.596943,206.986588 379.637741,207.372623 379.614873,207.75483 C379.597654,208.469818 379.411247,209.449505 379.055647,210.693921 C378.700047,211.938336 378.279092,213.367391 377.792771,214.981127 C377.30645,216.594863 376.800161,218.328838 376.273889,220.183106 C375.747619,222.037372 375.305209,223.931823 374.946646,225.866512 C374.588084,227.801202 374.354249,229.733783 374.245133,231.664314 C374.136017,233.594844 374.267098,235.408753 374.638379,237.106095 C374.826419,237.807869 375.193596,238.398954 375.739922,238.879367 C376.286249,239.359778 377.007471,239.479923 377.903612,239.239802 C380.436183,238.561202 382.663793,237.212168 384.586508,235.192658 C386.509223,233.173148 388.165174,230.859512 389.554409,228.251682 C390.943643,225.64385 392.106001,222.929701 393.041519,220.10915 C393.977035,217.288599 394.704388,214.743241 395.223598,212.473 C395.608702,210.949065 395.88002,209.351176 396.037557,207.679283 C396.195095,206.007392 396.432673,204.439435 396.750299,202.975368 C397.067924,201.511301 397.540404,200.235584 398.167756,199.148179 C398.795107,198.060775 399.751651,197.344823 401.037418,197.000303 C402.440073,196.624463 403.670626,196.775276 404.729114,197.452748 C405.787603,198.13022 406.483983,199.092741 406.818276,200.340341 C407.006316,201.042116 407.001874,202.077511 406.804948,203.446557 C406.608023,204.815603 406.321742,206.396608 405.946099,208.189621 C405.570455,209.982635 405.155361,211.901105 404.700804,213.94509 C404.246247,215.989074 403.867716,218.043998 403.565199,220.109924 C403.262682,222.17585 403.08609,224.166218 403.035417,226.081089 C402.984745,227.99596 403.163117,229.713625 403.570537,231.234137 C403.946616,232.637686 404.991818,233.109774 406.706174,232.650414 C407.914016,232.326774 409.320036,231.573958 410.924277,230.391942 C412.528518,229.209927 414.144662,227.721785 415.772758,225.927472 C416.518723,225.105349 417.252073,224.236171 417.972812,223.319932 C418.047237,222.895507 418.123481,222.461309 418.201545,222.017337 C418.598645,219.758921 419.063498,217.168989 419.596118,214.24746 C420.128737,211.325933 420.778304,207.944803 421.544837,204.103972 C420.874,203.782282 420.262111,203.329894 419.709149,202.746793 C419.156187,202.163692 418.743906,201.365316 418.472292,200.351641 C418.221573,199.415941 418.199618,198.554764 418.406428,197.768083 C418.613237,196.981402 418.990362,196.2849 419.537813,195.678558 C420.085265,195.072216 420.768581,194.544387 421.587783,194.095055 C422.406987,193.645724 423.303608,193.290563 424.277673,193.029564 C425.290701,192.758123 426.327219,192.574408 427.387258,192.478411 C428.447295,192.382415 429.423678,192.40285 430.316432,192.539718 C431.209185,192.676585 431.976712,192.930573 432.619032,193.30169 C433.261353,193.672808 433.671304,194.189752 433.848897,194.852539 C433.880237,194.969502 433.883061,195.135889 433.857369,195.351707 C433.831678,195.567524 433.801469,195.805442 433.766742,196.065467 C433.732015,196.325492 433.701806,196.563409 433.676114,196.779227 C433.650422,196.995044 433.653247,197.161432 433.684587,197.278394 C433.70548,197.356369 433.735408,197.390136 433.77437,197.379696 L433.832814,197.364036 L433.934031,197.274235 C435.202854,195.931376 436.541253,194.653459 437.949269,193.44045 C439.357285,192.22744 440.745305,191.134712 442.113371,190.162233 C443.481437,189.189754 444.812639,188.35252 446.107015,187.650506 C447.401391,186.948493 448.594039,186.451333 449.684993,186.159013 C451.438311,185.689213 452.904542,185.745537 454.083729,186.327988 C455.262918,186.910439 456.118889,188.195826 456.651669,190.184187 C456.766582,190.61305 456.869848,191.076366 456.961469,191.574149 C457.053088,192.071934 457.113581,192.60939 457.142946,193.186534 C457.219746,194.252409 456.953934,195.598107 456.345502,197.223669 C455.737069,198.849232 454.978727,200.577619 454.070452,202.408884 C453.162178,204.240148 452.159122,206.107232 451.061259,208.01019 L448.024323,213.274192 C447.097554,214.880585 446.340692,216.263841 445.753716,217.424001 C445.166739,218.58416 444.920264,219.339673 445.014284,219.69056 C445.097858,220.00246 445.174795,220.211668 445.245098,220.31819 C445.315399,220.424713 445.506399,220.436214 445.8181,220.352694 C447.681809,218.892222 449.739382,217.181334 451.99088,215.219981 C454.242378,213.258627 456.476267,211.270673 458.692614,209.256057 C460.908962,207.241443 462.996743,205.292638 464.956022,203.409584 C466.9153,201.52653 468.568289,199.903158 469.915037,198.539418 C470.213467,198.25052 470.529468,197.988258 470.86305,197.752621 C471.196632,197.516985 471.519268,197.357409 471.830969,197.273889 C472.532296,197.085969 473.179406,197.163293 473.772318,197.505862 C474.365229,197.848433 474.766146,198.409584 474.975079,199.189333 C475.215352,200.086046 475.109694,201.21124 474.658099,202.564952 C474.206504,203.918662 473.251727,205.459415 471.793739,207.187255 C470.659874,208.410379 469.389164,209.785069 467.981574,211.311365 C466.573982,212.837661 465.098935,214.423801 463.556386,216.069833 C462.013837,217.715863 460.443997,219.33785 458.846816,220.935839 C457.249635,222.53383 455.689322,223.996564 454.16583,225.32409 C452.642338,226.651615 451.181617,227.784716 449.783623,228.723427 C448.38563,229.662138 447.121694,230.282865 445.991776,230.585625 C443.303356,231.305985 441.114702,231.202964 439.425751,230.276557 C437.736801,229.35015 436.620728,227.873294 436.077502,225.845944 C435.993928,225.534045 435.950731,225.294903 435.947907,225.128513 C435.760992,223.339984 435.823522,221.547323 436.135499,219.750476 C436.447476,217.953628 436.877746,216.208683 437.426322,214.515586 C437.974899,212.822488 438.580711,211.187204 439.243776,209.609683 C439.906841,208.032162 440.503124,206.556128 441.032645,205.181537 C441.562164,203.806946 441.969073,202.559246 442.253384,201.438399 C442.537694,200.317552 442.570157,199.347774 442.350778,198.529037 C442.298544,198.3341 442.20735,198.149605 442.077192,197.975547 C441.947033,197.80149 441.745588,197.751002 441.472849,197.824082 C441.005298,197.949362 440.282807,198.33099 439.305354,198.968977 C438.327901,199.606965 437.31362,200.380173 436.262478,201.288626 C435.211337,202.197079 434.242158,203.177578 433.354915,204.230154 C432.467671,205.28273 431.905196,206.300505 431.66747,207.28351 C431.336575,208.5422 430.986629,210.119372 430.61762,212.015074 C430.248611,213.910776 429.87128,215.892253 429.485614,217.959565 C429.099948,220.026877 428.738285,222.066835 428.400617,224.079499 C428.062949,226.092164 427.774269,227.820064 427.534569,229.263251 C427.36997,230.519168 427.027928,231.697255 426.508429,232.797548 C425.988932,233.89784 425.364695,234.879931 424.635702,235.743851 C423.906707,236.607771 423.121681,237.340443 422.280597,237.941891 C421.439515,238.543339 420.629359,238.948456 419.850106,239.157256 C418.953965,239.397376 418.18023,239.353982 417.528873,239.027073 C416.877519,238.700163 416.410817,238.010387 416.128757,236.957725 C416.036318,236.612739 415.969413,236.186556 415.928038,235.679169 Z M167.48214,294.999675 C167.372105,295.15344 167.26191,295.306857 167.151558,295.459927 C165.172661,298.204864 163.138242,300.703482 161.048243,302.955855 C158.958243,305.208229 156.801572,307.133707 154.578164,308.732347 C152.354758,310.330986 150.074209,311.44349 147.73645,312.069891 C146.138983,312.497931 144.747078,312.641067 143.560691,312.499305 C142.374306,312.357543 141.360443,312.002417 140.519073,311.433915 C139.677703,310.865412 138.984853,310.110875 138.440501,309.170281 C137.89615,308.229686 137.472503,307.194086 137.16955,306.063449 C137.035293,305.562395 136.91957,305.052786 136.822381,304.534617 C135.801365,305.623394 134.677849,306.768006 133.451817,307.968467 C131.483504,309.895728 129.350125,311.752286 127.051617,313.538196 C124.753108,315.324106 122.297868,316.953511 119.685822,318.42646 C117.073776,319.899409 114.4041,321.001267 111.676717,321.732067 C109.338959,322.358467 107.144095,322.466041 105.092059,322.054788 C103.040023,321.643537 101.177181,320.847316 99.5034753,319.666105 C97.8297699,318.484893 96.3953661,316.988869 95.2002221,315.177987 C94.0050773,313.367105 93.1150118,311.370045 92.5299985,309.186745 C92.0807918,307.510283 91.9183716,305.579414 92.0427332,303.394078 C92.1670941,301.208743 92.5810576,298.935394 93.2846352,296.573964 C93.9882129,294.212535 94.9873128,291.824186 96.2819653,289.408845 C97.576618,286.993505 99.15535,284.742345 101.018209,282.6553 C102.881069,280.568256 105.046281,278.713615 107.51391,277.091322 C109.98154,275.46903 112.754337,274.245522 115.832385,273.420761 C119.066282,272.554241 121.69086,272.686708 123.706195,273.818167 C125.721529,274.949627 127.100032,276.899382 127.841745,279.667494 C128.280505,281.304968 128.311569,283.135231 127.934938,285.158335 C127.558306,287.18144 126.566123,289.400791 124.958358,291.816457 C123.350592,294.232123 121.04224,296.877267 118.033232,299.751968 C115.024224,302.626669 111.131486,305.748581 106.354901,309.117795 C106.852667,310.196233 107.694237,310.921367 108.879636,311.29322 C110.065034,311.665074 111.495409,311.626541 113.170802,311.177621 C114.963083,310.69738 116.81145,309.920056 118.715957,308.845625 C120.620466,307.771193 122.46629,306.555797 124.253486,305.199399 C126.040681,303.843002 127.760866,302.431448 129.414092,300.964694 C131.067317,299.49794 132.548507,298.129532 133.857704,296.859426 C135.109807,295.64471 136.158913,294.599063 137.005047,293.722456 C137.545583,290.373128 138.110001,287.037652 138.698316,283.715929 C139.296578,280.338052 139.845847,277.244961 140.34614,274.436562 L147.947468,231.971399 C148.241376,230.262967 148.898926,228.93766 149.92014,227.99544 C150.941353,227.053221 152.055865,226.4203 153.263706,226.09666 C154.471547,225.77302 155.66102,225.809483 156.832161,226.206049 C158.003302,226.602616 158.787347,227.541649 159.18432,229.023173 C159.37236,229.724947 159.405255,230.510068 159.283006,231.378558 C159.160757,232.247048 158.966515,233.197494 158.700274,234.229926 C158.217202,236.323339 157.658754,238.875671 157.024917,241.887001 C156.391079,244.89833 155.722525,248.169635 155.019235,251.701014 C154.315944,255.232393 153.607653,258.900866 152.89434,262.706544 C152.181027,266.512222 151.483183,270.219682 150.800786,273.829036 C150.118388,277.43839 149.489009,280.855896 148.912628,284.081656 C148.336247,287.307417 147.84309,290.103417 147.433144,292.469742 C147.244829,293.481294 147.105432,294.636422 147.014947,295.93516 C146.924463,297.233899 147.00458,298.351101 147.2553,299.286801 C147.412,299.871613 147.654244,300.308137 147.98204,300.596384 C148.309836,300.884631 148.804908,300.940014 149.467273,300.762534 C150.285488,300.543294 151.242951,300.02558 152.339691,299.209376 C153.436431,298.393172 154.588773,297.394933 155.796752,296.214629 C157.004732,295.034326 158.239795,293.72142 159.501983,292.275871 C160.764171,290.830322 162.006152,289.348419 163.227965,287.830115 C164.449777,286.311811 165.603388,284.8118 166.688831,283.330037 C167.401964,282.356523 168.062169,281.437782 168.669454,280.573801 C168.958862,278.861397 169.254565,277.152629 169.556565,275.447486 C170.154828,272.069609 170.704097,268.976518 171.204389,266.168119 L178.805718,223.702955 C179.099625,221.994524 179.757176,220.669217 180.77839,219.726997 C181.799603,218.784778 182.914114,218.151857 184.121956,217.828217 C185.329796,217.504577 186.51927,217.541039 187.69041,217.937607 C188.861551,218.334173 189.645596,219.273206 190.042569,220.75473 C190.230609,221.456504 190.263504,222.241625 190.141255,223.110115 C190.019006,223.978605 189.824764,224.929051 189.558523,225.961483 C189.075451,228.054896 188.517003,230.607228 187.883166,233.618558 C187.249329,236.629887 186.580775,239.901192 185.877484,243.432571 C185.174193,246.96395 184.465903,250.632423 183.75259,254.438101 C183.039277,258.243779 182.341433,261.951239 181.659035,265.560593 C180.976638,269.169947 180.347259,272.587453 179.770878,275.813213 C179.194497,279.038974 178.701341,281.834974 178.291395,284.201299 C178.10308,285.212851 177.963681,286.367979 177.873196,287.666717 C177.782712,288.965456 177.862829,290.082658 178.113549,291.018358 C178.270249,291.60317 178.512493,292.039694 178.840289,292.327941 C179.168085,292.616188 179.663157,292.671571 180.325522,292.494091 C181.143738,292.274851 182.1012,291.757137 183.19794,290.940933 C184.29468,290.124729 185.447022,289.12649 186.655002,287.946186 C187.862981,286.765883 189.098046,285.452977 190.360233,284.007428 C191.62242,282.561879 192.864401,281.079976 194.086214,279.561672 C195.308027,278.043368 196.461637,276.543357 197.547081,275.061594 C197.677462,274.883608 197.806073,274.707454 197.932915,274.53313 C197.993627,273.850299 198.070413,273.156582 198.163271,272.451979 C198.514347,269.788028 199.145989,267.080279 200.058213,264.328649 C200.970437,261.57702 202.230413,258.993411 203.838179,256.577745 C205.445944,254.162079 207.439919,252.019033 209.820164,250.148542 C212.200409,248.27805 215.046401,246.899125 218.358224,246.011725 C220.07258,245.552365 221.630074,245.364858 223.030754,245.449201 C224.431435,245.533542 225.64773,245.70907 226.679677,245.975787 C227.859852,246.328146 228.938794,246.770301 229.916533,247.302263 C230.484878,246.773895 231.077918,246.259809 231.695672,245.75999 C232.206985,245.330477 232.755347,244.922381 233.340774,244.53569 C233.9262,244.148999 234.452682,243.893017 234.920233,243.767737 C236.400813,243.371016 237.718324,243.456744 238.872807,244.024921 C240.027291,244.593098 240.735105,245.364518 240.996272,246.339205 C241.069398,246.612118 241.107374,246.831766 241.110198,246.998156 C241.113871,247.791118 241.062631,248.807712 240.956477,250.047969 C240.850322,251.288227 240.729418,252.668223 240.593761,254.187999 C240.458104,255.707774 240.328377,257.288617 240.204578,258.930576 C240.080779,260.572534 239.997849,262.172178 239.955788,263.729555 C239.913725,265.286932 239.926083,266.735685 239.992861,268.075858 C240.05964,269.416032 240.213162,270.534458 240.453435,271.431171 C240.766835,272.600795 241.220197,273.513522 241.813533,274.169378 C242.40687,274.825233 243.171078,275.027878 244.106181,274.777318 C244.69062,274.620718 245.332576,274.250223 246.032066,273.665822 C246.731558,273.08142 247.46527,272.352051 248.233226,271.477691 C249.001183,270.603331 249.774845,269.633434 250.554235,268.56797 C251.333626,267.502506 252.081172,266.435142 252.796895,265.365845 C254.456469,262.83183 256.179259,259.988405 257.965319,256.835486 C258.452914,256.161608 258.988923,255.746376 259.573363,255.589776 C260.352615,255.380976 261.107082,255.586231 261.836789,256.205547 C262.566494,256.824862 263.056699,257.602359 263.307419,258.538058 C263.599926,259.629708 263.47528,260.645079 262.933476,261.584201 C262.409742,262.434909 261.720146,263.601657 260.864667,265.084481 C260.009188,266.567307 259.014249,268.191946 257.879821,269.958448 C256.745393,271.72495 255.516189,273.527272 254.192171,275.365468 C252.868153,277.203664 251.471242,278.925565 250.001395,280.531222 C248.531549,282.13688 247.036102,283.530002 245.51501,284.71063 C243.993918,285.891259 242.473623,286.685142 240.95408,287.092302 C239.590388,287.457702 238.343178,287.478496 237.212411,287.154684 C236.081646,286.830872 235.069477,286.287254 234.175874,285.523814 C233.28227,284.760375 232.520318,283.82587 231.889994,282.720272 C231.259669,281.614673 230.777367,280.438092 230.443074,279.190493 C230.223694,278.371756 230.065372,277.547118 229.968103,276.716554 C229.870834,275.885991 229.86455,275.083293 229.949248,274.308439 C229.180167,276.269553 228.258566,278.323741 227.184419,280.471065 C226.110271,282.618388 224.877468,284.641051 223.485971,286.539115 C222.094475,288.437178 220.557173,290.102678 218.874019,291.535664 C217.190866,292.96865 215.35577,293.951349 213.368675,294.483789 C212.355646,294.755229 211.1222,294.866353 209.668299,294.817165 C208.214398,294.767977 206.75819,294.437358 205.299628,293.825298 C203.841066,293.213239 202.504211,292.276081 201.289024,291.013796 C200.134133,289.814146 199.268565,288.216186 198.6923,286.21987 C198.458003,286.560724 198.229447,286.886821 198.009807,287.191484 C196.03091,289.936421 193.996492,292.435039 191.906492,294.687412 C189.816492,296.939786 187.659822,298.865264 185.436414,300.463903 C183.213006,302.062544 180.932459,303.175047 178.594701,303.801447 C176.997233,304.229488 175.605327,304.372624 174.418941,304.230862 C173.232556,304.0891 172.218693,303.733974 171.377324,303.165471 C170.535953,302.596969 169.843102,301.842432 169.29875,300.901838 C168.754399,299.961243 168.330752,298.925643 168.027799,297.795006 C167.785593,296.891081 167.603708,295.959306 167.48214,294.999675 Z M218.389184,257.348451 C216.557941,257.839131 214.910526,258.781987 213.44689,260.177047 C211.983254,261.572107 210.792799,263.207348 209.87549,265.082821 C208.958181,266.958293 208.36324,268.945846 208.09065,271.045539 C207.818062,273.145232 207.937707,275.150242 208.449594,277.060629 C208.658527,277.840379 208.923995,278.636307 209.246006,279.448438 C209.568016,280.260569 209.998365,280.970531 210.53707,281.578346 C211.075773,282.18616 211.729237,282.637856 212.49748,282.933445 C213.265723,283.229036 214.195308,283.23067 215.286262,282.93835 C216.14344,282.70867 217.044859,282.059721 217.990547,280.991485 C218.936234,279.923249 219.863414,278.630161 220.772114,277.112183 C221.680814,275.594204 222.528938,273.967118 223.316513,272.230874 C224.104089,270.494631 224.782602,268.818973 225.352072,267.203851 C225.921541,265.588729 226.352236,264.157065 226.644169,262.908814 C226.936102,261.660565 227.014164,260.783035 226.878357,260.276198 C226.679871,259.535435 226.246415,258.93077 225.577977,258.462184 C224.90954,257.993598 224.147731,257.644059 223.292528,257.413557 C222.437325,257.183055 221.562159,257.07282 220.667006,257.082849 C219.771852,257.092878 219.012587,257.181411 218.389184,257.348451 Z M55.8954045,277.195609 C58.9869987,274.862899 61.6395176,272.606076 63.8530406,270.425071 C66.0665636,268.244066 67.8540826,266.187679 69.2156511,264.255848 C70.5772195,262.324017 71.5232434,260.555787 72.0537505,258.951105 C72.5842574,257.346423 72.6980327,255.978783 72.3950795,254.848147 C72.2906129,254.458272 71.9756676,254.062122 71.4502347,253.659685 C70.9248018,253.257247 70.2052725,252.948612 69.2916255,252.73377 C68.3779778,252.518927 67.278075,252.427125 65.9918834,252.458358 C64.705692,252.489593 63.2638837,252.719226 61.666416,253.147267 C57.3805265,254.295667 53.544814,255.877108 50.1591634,257.891637 C46.7735127,259.906166 43.7791576,262.056101 41.1760082,264.341505 C38.572859,266.626911 36.3386886,268.88655 34.47343,271.120491 C32.6081713,273.354432 31.058236,275.28448 29.8235773,276.910692 C29.0479981,277.912454 28.3964457,278.870525 27.8689004,279.784934 C27.341355,280.699343 26.8124055,281.530543 26.2820362,282.278562 C25.7516668,283.026581 25.1438748,283.680424 24.4586422,284.240111 C23.7734097,284.799799 22.8853297,285.225796 21.794376,285.518116 C20.1579455,285.956597 18.7774735,285.908633 17.6529183,285.374223 C16.5283631,284.839814 15.7780569,283.870849 15.4019769,282.467299 C14.9527704,280.790837 15.1371974,278.829709 15.9552635,276.583856 C16.7733298,274.338003 18.1005018,271.966211 19.9368199,269.468412 C21.7731377,266.970612 24.0420342,264.450952 26.7435774,261.909356 C29.4451206,259.36776 32.4449801,256.965634 35.7432463,254.702907 C39.0415122,252.440179 42.5634793,250.389141 46.3092531,248.549731 C50.0550269,246.710321 53.91495,245.258197 57.8891384,244.193316 C61.9802146,243.097116 65.5950751,242.483698 68.7338285,242.353045 C71.8725819,242.222392 74.5434617,242.488703 76.7465497,243.151988 C78.9496375,243.815272 80.7231219,244.823473 82.0670573,246.176619 C83.4109921,247.529766 84.333666,249.142014 84.835106,251.013414 C85.336546,252.884814 85.2354784,255.001196 84.5319008,257.362626 C83.8283232,259.724055 82.5890281,262.228997 80.813978,264.877526 C79.0389282,267.526056 76.7338936,270.222544 73.8988052,272.96707 C71.0637169,275.711596 67.7654314,278.402614 64.0038498,281.040207 C68.4995219,281.298128 72.2439077,281.83046 75.2371193,282.637218 C78.230331,283.443976 80.6742176,284.46058 82.5688527,285.68706 C84.4634879,286.913541 85.8964798,288.326372 86.8678705,289.925595 C87.8392611,291.524818 88.5704422,293.240609 89.0614355,295.073021 C89.7822555,297.763158 89.7523393,300.612624 88.9716862,303.621506 C88.1910324,306.630388 86.7965259,309.647011 84.7881252,312.671467 C82.7797243,315.695923 80.2373185,318.67539 77.1608318,321.609959 C74.0843451,324.544528 70.613342,327.292272 66.7477183,329.853276 C62.8820948,332.41428 58.6991851,334.725989 54.1988632,336.788473 C49.6985416,338.850958 45.0327677,340.529455 40.2014014,341.824016 C38.4870457,342.283376 36.7271183,342.650482 34.9215665,342.925344 C33.1160148,343.200207 31.4148119,343.279969 29.8179066,343.164632 C28.2210011,343.049295 26.8498449,342.68544 25.7043963,342.073055 C24.5589479,341.46067 23.8034184,340.472212 23.437785,339.10765 C23.3959984,338.9517 23.3665646,338.802889 23.3494825,338.661213 C23.3324006,338.519537 23.3172244,338.346012 23.3039537,338.140635 C23.3762309,337.786975 23.4497066,337.359873 23.5243832,336.859318 C23.5990596,336.358761 23.9295999,335.8001 24.516014,335.183318 C25.102428,334.566535 26.1064758,333.910981 27.5281869,333.216635 C28.9498982,332.522288 31.063377,331.799286 33.8686864,331.047605 C36.3467289,320.81447 38.3089863,312.04639 39.7555177,304.7431 C41.2020489,297.439811 42.4378719,291.415326 43.4630233,286.669464 C44.4881748,281.923603 45.4648953,278.360795 46.393214,275.980933 C47.3215326,273.601071 48.4870019,272.22324 49.8896566,271.8474 C50.5130588,271.68036 51.1430868,271.61601 51.7797596,271.654347 C52.4164324,271.692685 53.0031934,271.817518 53.5400604,272.028852 C54.0769272,272.240185 54.5470146,272.552979 54.9503364,272.967243 C55.3536579,273.381506 55.6336646,273.881036 55.7903646,274.465849 C55.5831303,274.939244 55.5148777,275.385839 55.5856051,275.805648 C55.6563324,276.225456 55.7595978,276.688772 55.8954045,277.195609 Z M55.6739582,289.226764 C54.9861998,293.673288 54.2959089,297.681674 53.6030648,301.25204 C52.9102207,304.822407 52.2345377,308.106068 51.5759957,311.103124 C50.9174534,314.100179 50.2800955,316.903479 49.6639025,319.513107 C49.0477096,322.122735 48.4476892,324.675761 47.8638237,327.17226 C52.279022,325.571344 56.2851218,323.651746 59.8822431,321.413408 C63.4793642,319.175069 66.4941875,316.789826 68.9268036,314.257609 C71.3594197,311.725392 73.1111507,309.145822 74.1820491,306.518822 C75.2529477,303.891823 75.4645473,301.369749 74.8168541,298.952525 C74.5243473,297.860875 73.9726627,296.776011 73.1617829,295.697899 C72.3509036,294.619787 71.1991183,293.633039 69.7063928,292.737628 C68.2136671,291.842216 66.3170858,291.075929 64.0165916,290.438745 C61.7160975,289.801561 58.9352476,289.397571 55.6739582,289.226764 Z M115.890862,282.054888 C115.685602,282.0681 115.50505,282.095586 115.349199,282.137346 L114.823206,282.278286 C113.342626,282.675006 112.037822,283.338022 110.908756,284.267355 C109.779689,285.196687 108.807405,286.282484 107.991876,287.524778 C107.176347,288.767071 106.511668,290.104734 105.997818,291.537806 C105.483968,292.970878 105.055179,294.370692 104.711437,295.737291 C104.367696,297.103889 104.118047,298.393024 103.962483,299.604734 C103.80692,300.816443 103.711495,301.823985 103.676206,302.627387 C104.851858,301.560212 106.050078,300.382536 107.270904,299.094323 C108.491729,297.806111 109.635318,296.580394 110.701705,295.417137 C111.768092,294.25388 112.689767,293.212983 113.466758,292.294415 C114.243749,291.375848 114.79571,290.747411 115.122656,290.409086 C116.583468,288.847637 117.51707,287.500595 117.923492,286.367922 C118.329913,285.235248 118.439102,284.318038 118.251062,283.616263 C118.094362,283.03145 117.783934,282.613197 117.319769,282.36149 C116.855605,282.109782 116.379307,282.007583 115.890862,282.054888 Z M285.411896,270.66693 C285.140857,271.993154 284.716372,273.214224 284.13843,274.330177 C283.560488,275.446129 282.882326,276.421777 282.103923,277.257149 C281.32552,278.092521 280.488473,278.7869 279.592757,279.340306 C278.697041,279.893713 277.820607,280.28525 276.963429,280.514931 C275.716625,280.849011 274.578467,280.809244 273.548919,280.395631 C272.519371,279.982018 271.837461,279.151423 271.503168,277.903824 C271.388255,277.474962 271.308987,276.984322 271.265363,276.431891 C271.22174,275.87946 271.272205,275.249594 271.416759,274.542274 C272.737793,267.627799 274.111745,260.949958 275.538658,254.508552 C276.965569,248.067146 278.394297,242.022312 279.824882,236.373869 C281.255468,230.725425 282.657448,225.554818 284.030863,220.861893 C285.40428,216.168968 286.71034,212.120945 287.949086,208.717705 C289.187832,205.314464 290.309322,202.642605 291.313592,200.702045 C292.317861,198.761485 293.151165,197.702482 293.81353,197.525001 C295.177223,197.159601 296.294701,197.278034 297.165999,197.880303 C298.037297,198.482573 298.613967,199.310026 298.896027,200.362689 C299.125854,201.220414 299.141386,202.135544 298.942623,203.10811 C298.501337,205.357471 298.003946,207.90389 297.450433,210.747443 C296.896919,213.590997 296.317018,216.608724 295.710709,219.800717 C295.1044,222.99271 294.465773,226.297783 293.79481,229.716032 C293.123846,233.134283 292.46715,236.527769 291.824703,239.896592 C291.182255,243.265414 290.542924,246.52889 289.906687,249.687115 C289.27045,252.845341 288.676784,255.772738 288.125669,258.469394 C287.574557,261.166051 287.069823,263.568187 286.611455,265.675873 C286.153087,267.783558 285.753238,269.447227 285.411896,270.66693 Z M335.398722,183.937775 C335.586762,184.63955 335.587543,185.694438 335.401064,187.102471 C335.214585,188.510505 334.805983,189.946696 334.175244,191.411088 C333.544507,192.875481 332.677182,194.236103 331.573245,195.492995 C330.469307,196.749888 329.099144,197.597561 327.462713,198.036041 C327.073087,198.140441 326.578227,198.241699 325.978118,198.339818 C325.378008,198.437937 324.764143,198.445724 324.136504,198.363179 C323.508867,198.280634 322.942787,198.077133 322.438246,197.752671 C321.933707,197.428209 321.587422,196.915098 321.399382,196.213323 C321.305362,195.862436 321.347499,195.318373 321.525792,194.58112 C321.704087,193.843866 321.89854,193.05006 322.109162,192.199678 C322.319783,191.349296 322.506403,190.52625 322.669026,189.730515 C322.831649,188.93478 322.850281,188.302997 322.724921,187.835148 C322.369734,186.509573 321.176094,185.795204 319.143964,185.692018 C317.111836,185.588831 313.89443,186.127091 309.491653,187.306812 C305.130662,188.642482 301.227047,189.970508 297.780691,191.29093 C294.334335,192.611351 291.18688,193.956142 288.338235,195.325341 C285.48959,196.69454 282.8593,198.09924 280.447291,199.539482 C278.035282,200.979725 275.675329,202.45824 273.36736,203.975071 C271.059392,205.491902 268.737908,207.075021 266.402836,208.724475 C264.067765,210.373929 261.569751,212.077473 258.908721,213.835161 C258.656875,213.986217 258.414774,214.134659 258.18241,214.280494 C257.950047,214.426329 257.736462,214.525345 257.541649,214.577545 C256.918246,214.744585 256.316734,214.759509 255.737094,214.622317 C255.157452,214.485124 254.619888,214.232197 254.124382,213.863527 C253.628877,213.494858 253.195635,213.046833 252.82464,212.51944 C252.453645,211.992048 252.184579,211.416461 252.017432,210.792662 C251.745819,209.778987 252.258462,208.419383 253.555375,206.71381 C254.852289,205.008236 256.750484,203.131124 259.250016,201.082417 C261.749548,199.033709 264.763384,196.878554 268.291615,194.616888 C271.819844,192.355221 275.686542,190.149134 279.891819,187.99856 C284.097097,185.847986 288.549354,183.84018 293.248726,181.975081 C297.948097,180.109981 302.713394,178.530175 307.54476,177.235614 C311.713761,176.118534 315.406546,175.484236 318.623225,175.332704 C321.839903,175.18117 324.598448,175.423992 326.898943,176.061176 C329.199437,176.69836 331.053457,177.695428 332.461059,179.052409 C333.868662,180.409389 334.847873,182.037829 335.398722,183.937775 Z M332.626622,226.425224 C330.795379,226.915904 329.155093,227.846403 327.705715,229.216749 C326.256338,230.587095 325.08014,232.197623 324.177089,234.048382 C323.274037,235.89914 322.686226,237.874337 322.413636,239.97403 C322.141046,242.073723 322.27114,244.117719 322.80392,246.106081 C323.002407,246.846843 323.277614,247.640162 323.629552,248.48606 C323.981491,249.331959 324.44438,250.085434 325.018235,250.746511 C325.59209,251.407587 326.297574,251.897575 327.134707,252.216493 C327.971843,252.53541 328.974834,252.538269 330.143712,252.225069 C331.935994,251.744828 333.551575,250.800055 334.990507,249.390722 C336.429437,247.981388 337.604929,246.329263 338.517015,244.434297 C339.429101,242.539331 340.013596,240.512791 340.270514,238.354617 C340.527434,236.196443 340.389506,234.123205 339.856726,232.134844 C339.647792,231.355094 339.382324,230.559166 339.060315,229.747034 C338.738305,228.934904 338.298214,228.227552 337.740029,227.624957 C337.181844,227.022362 336.49203,226.590853 335.670566,226.330417 C334.849103,226.069982 333.834465,226.101583 332.626622,226.425224 Z" id="path-3"></path>
    <filter x="-1.8%" y="-3.9%" width="103.7%" height="110.1%" filterUnits="objectBoundingBox" id="filter-4">
      <feOffset dx="0" dy="2" in="SourceAlpha" result="shadowOffsetOuter1"></feOffset>
      <feGaussianBlur stdDeviation="2.5" in="shadowOffsetOuter1" result="shadowBlurOuter1"></feGaussianBlur>
      <feColorMatrix values="0 0 0 0 0   0 0 0 0 0   0 0 0 0 0  0 0 0 0.898748868 0" type="matrix" in="shadowBlurOuter1"></feColorMatrix>
    </filter>
  </defs>
  <g id="Page-1" stroke="none" stroke-width="1" fill="none" fill-rule="evenodd">
    <g id="logo">
      <g id="Group">
        <g id="logo">
          <circle id="Oval" fill="url(#linearGradient-1)" cx="241.5" cy="242.5" r="228.5"></circle>
          <path d="M242.407407,0 C376.285321,-5.68434189e-14 484.814814,108.598726 484.814814,242.562044 C484.814814,376.525362 376.285321,485.124088 242.407407,485.124088 C108.529493,485.124088 5.68434189e-14,376.525362 0,242.562044 C0,108.598726 108.529493,0 242.407407,0 Z M381.505959,73.704794 C343.093649,40.65966 294.219403,22.051095 242.411825,22.051095 C144.982375,22.051095 61.026644,88.094434 35.543209,180.585627 L381.505959,73.704794 Z M454.246913,285.209574 L96.312672,400.151013 C135.819778,440.156785 188.557577,463.072993 244.800852,463.072993 C346.659385,463.072993 433.382144,387.795035 454.246913,285.209574 Z" id="Combined-Shape" fill="url(#linearGradient-2)" fill-rule="nonzero"></path>
          <g id="Shape" fill-rule="nonzero">
            <use fill="black" fill-opacity="1" filter="url(#filter-4)" xlink:href="#path-3"></use>
            <use fill="#FFFFFF" fill-rule="evenodd" xlink:href="#path-3"></use>
          </g>
        </g>
      </g>
    </g>
  </g>
</svg>
